<svg width="143" height="28" viewBox="0 0 143 28" fill="none" xmlns="http://www.w3.org/2000/svg">
<path d="M4.70312 22L0.546875 6.72727H4.83239L7.19886 16.9886H7.33807L9.80398 6.72727H14.0099L16.5156 16.929H16.6449L18.9716 6.72727H23.2472L19.1009 22H14.6165L11.9915 12.3949H11.8026L9.17756 22H4.70312ZM29.7425 13.1705V22H25.5067V1.63636H29.6232V9.42188H29.8022C30.1469 8.52036 30.7037 7.81439 31.4727 7.30398C32.2416 6.78693 33.2061 6.52841 34.3661 6.52841C35.4267 6.52841 36.3514 6.76042 37.1403 7.22443C37.9357 7.68182 38.5522 8.34138 38.9897 9.20312C39.4338 10.0582 39.6526 11.0824 39.646 12.2756V22H35.4102V13.0312C35.4168 12.09 35.1781 11.3575 34.6942 10.8338C34.217 10.3101 33.5475 10.0483 32.6857 10.0483C32.109 10.0483 31.5986 10.1709 31.1545 10.4162C30.717 10.6615 30.3723 11.0194 30.1204 11.4901C29.8751 11.9541 29.7492 12.5142 29.7425 13.1705ZM42.9794 22V6.72727H47.2152V22H42.9794ZM45.1072 4.75852C44.4775 4.75852 43.9373 4.54972 43.4865 4.1321C43.0424 3.70786 42.8203 3.20076 42.8203 2.61079C42.8203 2.02746 43.0424 1.52699 43.4865 1.10938C43.9373 0.685132 44.4775 0.47301 45.1072 0.47301C45.737 0.47301 46.2739 0.685132 46.718 1.10938C47.1688 1.52699 47.3942 2.02746 47.3942 2.61079C47.3942 3.20076 47.1688 3.70786 46.718 4.1321C46.2739 4.54972 45.737 4.75852 45.1072 4.75852ZM58.7319 6.72727V9.90909H49.5344V6.72727H58.7319ZM51.6225 3.06818H55.8583V17.3068C55.8583 17.6979 55.918 18.0028 56.0373 18.2216C56.1566 18.4337 56.3223 18.5829 56.5344 18.669C56.7532 18.7552 57.0051 18.7983 57.2901 18.7983C57.489 18.7983 57.6879 18.7817 57.8867 18.7486C58.0856 18.7088 58.238 18.679 58.3441 18.6591L59.0103 21.8111C58.7982 21.8774 58.4999 21.9536 58.1154 22.0398C57.7309 22.1326 57.2636 22.1889 56.7134 22.2088C55.6926 22.2486 54.7977 22.1127 54.0288 21.8011C53.2665 21.4896 52.6732 21.0057 52.2489 20.3494C51.8247 19.6932 51.6159 18.8646 51.6225 17.8636V3.06818ZM68.2873 22.2983C66.7163 22.2983 65.364 21.9801 64.2305 21.3438C63.1036 20.7008 62.2352 19.7926 61.6254 18.6193C61.0155 17.4394 60.7106 16.044 60.7106 14.4332C60.7106 12.8622 61.0155 11.4834 61.6254 10.2969C62.2352 9.11032 63.0936 8.18561 64.2006 7.52273C65.3143 6.85985 66.6201 6.52841 68.1183 6.52841C69.1258 6.52841 70.0638 6.69081 70.9322 7.01562C71.8072 7.33381 72.5695 7.81439 73.2191 8.45739C73.8754 9.10038 74.3858 9.90909 74.7504 10.8835C75.1149 11.8513 75.2972 12.9848 75.2972 14.2841V15.4474H62.4009V12.8224H71.31C71.31 12.2126 71.1774 11.6723 70.9123 11.2017C70.6471 10.7311 70.2792 10.3632 69.8086 10.098C69.3446 9.82623 68.8043 9.69034 68.1879 9.69034C67.5449 9.69034 66.9748 9.83949 66.4776 10.1378C65.9871 10.4295 65.6026 10.8239 65.3242 11.321C65.0458 11.8116 64.9033 12.3584 64.8967 12.9616V15.4574C64.8967 16.2131 65.0359 16.866 65.3143 17.4162C65.5993 17.9664 66.0004 18.3906 66.5174 18.6889C67.0344 18.9872 67.6476 19.1364 68.3569 19.1364C68.8275 19.1364 69.2584 19.0701 69.6495 18.9375C70.0406 18.8049 70.3754 18.6061 70.6538 18.3409C70.9322 18.0758 71.1443 17.7509 71.2901 17.3665L75.2077 17.625C75.0089 18.5663 74.6012 19.3883 73.9847 20.0909C73.3749 20.7869 72.5861 21.3305 71.6183 21.7216C70.6571 22.1061 69.5468 22.2983 68.2873 22.2983ZM78.0614 27.7273V6.72727H82.2376V9.29261H82.4265C82.6121 8.88163 82.8806 8.46401 83.2319 8.03977C83.5898 7.6089 84.0539 7.25095 84.6239 6.96591C85.2006 6.67424 85.9165 6.52841 86.7717 6.52841C87.8853 6.52841 88.9128 6.82008 89.854 7.40341C90.7953 7.98011 91.5477 8.8518 92.1112 10.0185C92.6746 11.1785 92.9563 12.6335 92.9563 14.3835C92.9563 16.0871 92.6812 17.5256 92.131 18.6989C91.5875 19.8655 90.8451 20.7505 89.9038 21.3537C88.9691 21.9503 87.9218 22.2486 86.7617 22.2486C85.9397 22.2486 85.2404 22.1127 84.6637 21.8409C84.0936 21.5691 83.6263 21.2277 83.2617 20.8168C82.8971 20.3991 82.6187 19.9782 82.4265 19.554H82.2972V27.7273H78.0614ZM82.2077 14.3636C82.2077 15.2718 82.3337 16.0639 82.5856 16.7401C82.8375 17.4162 83.2021 17.9432 83.6793 18.321C84.1566 18.6922 84.7366 18.8778 85.4194 18.8778C86.1088 18.8778 86.6921 18.6889 87.1694 18.3111C87.6467 17.9266 88.0079 17.3963 88.2532 16.7202C88.5051 16.0374 88.631 15.2519 88.631 14.3636C88.631 13.482 88.5084 12.7064 88.2631 12.0369C88.0179 11.3674 87.6566 10.8437 87.1793 10.4659C86.7021 10.0881 86.1154 9.89915 85.4194 9.89915C84.73 9.89915 84.1467 10.0814 83.6694 10.446C83.1987 10.8106 82.8375 11.3277 82.5856 11.9972C82.3337 12.6667 82.2077 13.4555 82.2077 14.3636ZM100.135 22.2884C99.1609 22.2884 98.2925 22.1193 97.5302 21.7812C96.7679 21.4366 96.1647 20.9295 95.7205 20.2599C95.283 19.5838 95.0643 18.742 95.0643 17.7344C95.0643 16.8859 95.2201 16.1733 95.5316 15.5966C95.8432 15.0199 96.2674 14.5559 96.8043 14.2045C97.3413 13.8532 97.9511 13.5881 98.6339 13.4091C99.3233 13.2301 100.046 13.1042 100.801 13.0312C101.69 12.9384 102.406 12.8523 102.949 12.7727C103.493 12.6866 103.887 12.5606 104.132 12.3949C104.378 12.2292 104.5 11.9839 104.5 11.6591V11.5994C104.5 10.9697 104.301 10.4825 103.904 10.1378C103.513 9.79309 102.956 9.62074 102.233 9.62074C101.471 9.62074 100.864 9.78977 100.414 10.1278C99.9629 10.4593 99.6647 10.8769 99.5188 11.3807L95.6012 11.0625C95.8001 10.1345 96.1912 9.33239 96.7745 8.65625C97.3578 7.97348 98.1102 7.44981 99.0316 7.08523C99.9596 6.71401 101.033 6.52841 102.253 6.52841C103.102 6.52841 103.914 6.62784 104.689 6.8267C105.471 7.02557 106.164 7.33381 106.767 7.75142C107.377 8.16903 107.858 8.70597 108.209 9.36222C108.56 10.0118 108.736 10.7907 108.736 11.6989V22H104.719V19.8821H104.6C104.355 20.3594 104.026 20.7803 103.615 21.1449C103.204 21.5028 102.711 21.7846 102.134 21.9901C101.557 22.1889 100.891 22.2884 100.135 22.2884ZM101.348 19.3651C101.971 19.3651 102.522 19.2424 102.999 18.9972C103.476 18.7453 103.851 18.4072 104.123 17.983C104.394 17.5587 104.53 17.0781 104.53 16.5412V14.9205C104.398 15.0066 104.215 15.0862 103.983 15.1591C103.758 15.2254 103.503 15.2884 103.218 15.348C102.933 15.401 102.648 15.4508 102.363 15.4972C102.078 15.5369 101.819 15.5734 101.587 15.6065C101.09 15.6795 100.656 15.7955 100.284 15.9545C99.9132 16.1136 99.6249 16.3291 99.4194 16.6009C99.2139 16.866 99.1112 17.1974 99.1112 17.5952C99.1112 18.1719 99.32 18.6127 99.7376 18.9176C100.162 19.2159 100.699 19.3651 101.348 19.3651ZM118.923 22.2983C117.359 22.2983 116.013 21.9669 114.886 21.304C113.766 20.6345 112.904 19.7064 112.301 18.5199C111.704 17.3333 111.406 15.9678 111.406 14.4233C111.406 12.8589 111.708 11.4867 112.311 10.3068C112.921 9.12026 113.786 8.19555 114.906 7.53267C116.026 6.86316 117.359 6.52841 118.903 6.52841C120.235 6.52841 121.402 6.77036 122.403 7.25426C123.404 7.73816 124.196 8.41761 124.779 9.29261C125.363 10.1676 125.684 11.1951 125.744 12.375H121.747C121.634 11.6127 121.336 10.9995 120.852 10.5355C120.375 10.0649 119.748 9.82955 118.973 9.82955C118.316 9.82955 117.743 10.0085 117.252 10.3665C116.769 10.7178 116.391 11.2315 116.119 11.9077C115.847 12.5838 115.711 13.4025 115.711 14.3636C115.711 15.3381 115.844 16.1667 116.109 16.8494C116.381 17.5322 116.762 18.0526 117.252 18.4105C117.743 18.7685 118.316 18.9474 118.973 18.9474C119.457 18.9474 119.891 18.848 120.275 18.6491C120.666 18.4503 120.988 18.1619 121.24 17.7841C121.498 17.3996 121.667 16.9389 121.747 16.402H125.744C125.678 17.5687 125.359 18.5961 124.789 19.4844C124.226 20.366 123.447 21.0554 122.453 21.5526C121.458 22.0497 120.282 22.2983 118.923 22.2983ZM135.416 22.2983C133.845 22.2983 132.493 21.9801 131.359 21.3438C130.232 20.7008 129.364 19.7926 128.754 18.6193C128.144 17.4394 127.839 16.044 127.839 14.4332C127.839 12.8622 128.144 11.4834 128.754 10.2969C129.364 9.11032 130.223 8.18561 131.33 7.52273C132.443 6.85985 133.749 6.52841 135.247 6.52841C136.255 6.52841 137.193 6.69081 138.061 7.01562C138.936 7.33381 139.698 7.81439 140.348 8.45739C141.004 9.10038 141.515 9.90909 141.879 10.8835C142.244 11.8513 142.426 12.9848 142.426 14.2841V15.4474H129.53V12.8224H138.439C138.439 12.2126 138.306 11.6723 138.041 11.2017C137.776 10.7311 137.408 10.3632 136.938 10.098C136.473 9.82623 135.933 9.69034 135.317 9.69034C134.674 9.69034 134.104 9.83949 133.607 10.1378C133.116 10.4295 132.732 10.8239 132.453 11.321C132.175 11.8116 132.032 12.3584 132.026 12.9616V15.4574C132.026 16.2131 132.165 16.866 132.443 17.4162C132.728 17.9664 133.129 18.3906 133.646 18.6889C134.163 18.9872 134.777 19.1364 135.486 19.1364C135.956 19.1364 136.387 19.0701 136.778 18.9375C137.17 18.8049 137.504 18.6061 137.783 18.3409C138.061 18.0758 138.273 17.7509 138.419 17.3665L142.337 17.625C142.138 18.5663 141.73 19.3883 141.114 20.0909C140.504 20.7869 139.715 21.3305 138.747 21.7216C137.786 22.1061 136.676 22.2983 135.416 22.2983Z" fill="white"/>
</svg>
